<svg width="35" height="25" viewBox="0 0 35 25" fill="none" xmlns="http://www.w3.org/2000/svg">
<path d="M2 17.9524V18.4674C2.00119 19.7268 2.50231 20.9343 3.39329 21.8245C4.28427 22.7146 5.49227 23.2146 6.75171 23.2146H28.2484C29.5078 23.2146 30.7157 22.7146 31.6067 21.8245C32.4977 20.9343 32.9988 19.7268 33 18.4674V6.75171C33 6.12771 32.8771 5.50981 32.6383 4.93331C32.3995 4.35682 32.0495 3.83299 31.6082 3.39176C31.167 2.95053 30.6432 2.60048 30.0667 2.36169C29.4902 2.1229 28.8724 2 28.2484 2H6.75171C6.12771 2 5.50981 2.1229 4.93331 2.36169C4.35682 2.60048 3.83299 2.95053 3.39176 3.39176C2.95053 3.83299 2.60048 4.35682 2.36169 4.93331C2.1229 5.50981 2 6.12771 2 6.75171V17.8941M2.00896 7.11892H32.9866M6.35756 12.8648H8.9282M6.35756 17.3119H12.5737M20.6708 17.3119H23.219M26.4167 17.3119H28.9649" stroke="#E95322" stroke-width="2.23924" stroke-linecap="round" stroke-linejoin="round"/>
</svg>
