<svg width="28" height="29" viewBox="0 0 28 29" fill="none" xmlns="http://www.w3.org/2000/svg">
<path d="M7.5408 16.8047C7.66987 17.3642 7.98978 17.8613 8.44557 18.2105C8.90137 18.5598 9.4646 18.7393 10.0384 18.7183H22.9171C23.4904 18.7391 24.0529 18.5594 24.508 18.2101C24.963 17.8608 25.2822 17.3638 25.4103 16.8047L26.5333 9.09185C26.6093 8.69953 26.5969 8.2952 26.4974 7.90819C26.3978 7.52118 26.2134 7.16115 25.9576 6.85416C25.7018 6.54717 25.3809 6.3009 25.0182 6.13319C24.6554 5.96549 24.2601 5.88062 23.8605 5.88457H5.8293M7.5408 16.8047L5.8293 5.88457M7.5408 16.8047C7.5408 16.8047 8.07091 22.6174 13.8746 22.8599H24.2693M5.8293 5.88457L5.32614 2.68165C5.24653 2.25218 5.0194 1.86401 4.68391 1.5843C4.34843 1.30459 3.92575 1.15097 3.48896 1.1499H1.80005M12.8055 25.0027C12.8055 26.1886 11.8442 27.1499 10.6583 27.1499C9.47244 27.1499 8.5111 26.1886 8.5111 25.0027C8.5111 23.8168 9.47244 22.8555 10.6583 22.8555C11.8442 22.8555 12.8055 23.8168 12.8055 25.0027ZM26.4164 25.0027C26.4164 26.1886 25.4551 27.1499 24.2692 27.1499C23.0834 27.1499 22.122 26.1886 22.122 25.0027C22.122 23.8168 23.0834 22.8555 24.2692 22.8555C25.4551 22.8555 26.4164 23.8168 26.4164 25.0027Z" stroke="#E95322" stroke-width="2" stroke-linecap="round" stroke-linejoin="round"/>
</svg>
